<svg height="512pt" viewBox="-12 0 512 512" width="512pt" xmlns="http://www.w3.org/2000/svg"><path d="m73.082031 285.371094c-10.007812 0-18.691406-3.617188-25.8125-10.738282-21.871093-21.871093-28.8125-76.785156-30.777343-99.375l-1.550782-17.796874 17.796875 1.550781c22.605469 1.964843 77.519531 8.90625 99.390625 30.777343 24.519532 24.519532.558594 62.007813-10.75 74.386719-2.375 2.167969-25.210937 21.195313-48.296875 21.195313zm0 0" fill="#a0deb0"/><path d="m252.992188 158.996094c-22.585938 1.964844-77.476563 8.878906-99.390626 30.792968-15.277343 15.277344-14.015624 38.9375 3.136719 64.511719l-1.070312 2.152344 8.570312 7.589844c.234375.21875 24.332031 21.328125 48.414063 21.328125l51.398437-72.921875c2.476563-12.65625 4.175781-25.605469 5.1875-37.207031l1.550781-17.796876zm0 0" fill="#80d398"/><path d="m36.664062 435.238281c-32.5625-32.550781-35.933593-117.273437-36.210937-126.828125l-.453125-15.890625 15.894531.453125c9.550781.277344 94.277344 3.632813 126.839844 36.210938 31.070313 31.070312 7.046875 75.601562-9.988281 94.804687-27.707032 24.777344-68.847656 38.484375-96.082032 11.25zm0 0" fill="#a0deb0"/><path d="m205.648438 300.941406c-29.179688 6.355469-50.257813 15.847656-62.652344 28.242188-31.066406 31.070312-7.042969 75.601562 11.25 96.0625 27.371094 24.277344 68.125 36.6875 94.820312 9.992187 12.054688-12.058593 21.386719-32.359375 27.730469-60.351562zm0 0" fill="#80d398"/><path d="m127.867188 121h30v391h-30zm0 0" fill="#895d3c"/><path d="m142.867188 121h15v391h-15zm0 0" fill="#714c2f"/><path d="m154.566406 15-11.699218-15-11.699219 15c-5.101563 6.300781-48.300781 53.800781-48.300781 91 0 15.300781 3.601562 26.398438 11.398437 34.199219 11.402344 11.101562 27.300781 11.101562 42.902344 10.800781h5.699219 11.398437c13.5 0 27.003906-.902344 37.203125-10.800781 7.796875-7.800781 11.398438-18.898438 11.398438-34.199219 0-37.199219-43.203126-84.699219-48.300782-91zm0 0" fill="#b1efaf"/><path d="m202.867188 106c0 15.300781-3.601563 26.398438-11.402344 34.199219-10.199219 9.898437-23.699219 10.800781-37.199219 10.800781 0 0-1.5 0-11.398437 0v-151l11.699218 15c5.097656 6.300781 48.300782 53.800781 48.300782 91zm0 0" fill="#a0deb0"/><path d="m368.613281 340.53125 42.4375 42.4375-21.210937 21.210938-42.4375-42.4375zm0 0" fill="#714c2f"/><path d="m220.121094 361.746094c-40.925782-40.925782-40.925782-107.546875 0-148.488282 40.957031-40.929687 107.5625-40.929687 148.492187 0 19.832031 19.832032 30.761719 46.199219 30.761719 74.25 0 28.054688-10.929688 54.421876-30.761719 74.238282-41.019531 41.050781-107.445312 41.046875-148.492187 0zm0 0" fill="#895d3c"/><path d="m411.050781 467.816406-53.027343-53.027344 63.632812-63.632812 53.027344 53.027344c17.546875 17.546875 17.546875 46.082031 0 63.632812-17.53125 17.53125-46.085938 17.546875-63.632813 0zm0 0" fill="#ff7d43"/><path d="m347.402344 234.46875c-14.679688-14.679688-33.976563-21.964844-53.261719-21.910156l-1.019531 149.113281c19.847656.3125 39.804687-6.660156 54.28125-21.136719 14.164062-14.164062 21.972656-33.003906 21.972656-53.027344 0-20.039062-7.808594-38.875-21.972656-53.039062zm0 0" fill="#faecd8"/><path d="m314.398438 271.320312c-2.226563-21.574218-9.535157-41.230468-20.257813-58.761718-10.671875.03125-21.25 2.550781-31.125 7.097656-7.824219 3.601562-15.246094 8.371094-21.683594 14.808594-29.238281 29.253906-29.238281 76.832031 0 106.070312 5.914063 5.914063 12.882813 10.304688 20.257813 13.75 9.894531 4.625 20.632812 7.210938 31.53125 7.382813 16.71875-26.316407 24.640625-57.699219 21.277344-90.347657zm0 0" fill="#b1efaf"/></svg>